<svg xmlns="http://www.w3.org/2000/svg" viewBox="0 0 1045.417 528.87"><defs><style>.a{fill:#cfd1d2;}.b{fill:#e0e1e2;}.c{fill:#535454;}.d{fill:#fff;}.e{fill:#414042;}.f{fill:#bad75b;}.g{fill:#d45a39;}.h{fill:#5f53a3;}</style></defs><title>logo</title><rect class="a" y="492.419" width="1045.417" height="36.451" rx="15.431"/><path class="b" d="M1034.963,492.419H10.454L174.767,156.308a29.841,29.841,0,0,1,26.81-16.735H843.511A30.371,30.371,0,0,1,870.8,156.6Z"/><path class="c" d="M1019.6,490.984H25.822L185.205,164.957a28.947,28.947,0,0,1,26.006-16.234H833.887a29.459,29.459,0,0,1,26.466,16.521Z"/><polygon class="d" points="852.46 490.984 204.099 490.984 317.562 177.482 738.997 177.482 852.46 490.984"/><path class="e" d="M530.867,15.369l50.254,26.394L798.4,284.985a10.669,10.669,0,0,1-.848,15.063l-18.381,16.419a10.93,10.93,0,0,1-15.433-.869L546.634,72.572l-20.584-52.9A3.448,3.448,0,0,1,530.867,15.369Z"/><path class="f" d="M599.561,144.479s-47.784-15.364-89.063,8.284c-32.9,18.847-46.135,51.025-49.709,60.066-32.682,82.685,22.914,199.854,76.635,205.05,21.739,2.1,45.605-13.9,53.852-33.139,11.038-25.757,14.35-59.236-1.517-85.05-23.781-38.685-71.642-30.359-81.332-59.935-6.943-21.192-2.841-47,10.356-64.208C544.68,141.784,599.561,144.479,599.561,144.479Z"/><path class="g" d="M508.353,1.369s-99.325-4.778-126.4,37.919c-18.971,29.921-39.51,99.439,28.439,159.576,28.142,24.906,91.089,47.3,148.515,105.856,14.258,14.539,34.643,47.67,26.86,82.158-8.817,39.064-52.247,62.593-83.738,69.518-73.672,16.2-150.828-43.329-188.014-101.117C248.228,253.04,280.55,153.706,293.468,121.347c13.423-33.624,45.348-93.08,97.968-110.694C438.969-5.259,508.353,1.369,508.353,1.369Z"/><path class="h" d="M189.219,88.187s-2.067,76.789,49.841,141.546c47.831,59.672,104.813,71.5,117.626,75.286,53,15.66,100.407,26.04,139.549,50.311,36.861,22.857,41.569,36.207,35.885,65.789-8.445,43.949-66.648,45.211-107.655,43.859-97.648-3.218-179.246-95.246-215.31-177.431C165.436,187.915,189.219,88.187,189.219,88.187Z"/></svg>