<svg xmlns="http://www.w3.org/2000/svg" viewBox="0 0 1032.896 1032.841"><defs><style>.a{fill:#fff;}</style></defs><title>picto_mail_bnw</title><polygon class="a" points="737.55 349.412 295.191 349.412 516.398 542.639 737.55 349.412"/><path class="a" d="M579.793,555.608l-46.507,40.653a25.839,25.839,0,0,1-33.887,0l-45.594-39.848L300.831,692.794H733.656L579.795,555.608Z"/><polygon class="a" points="252.31 380.345 252.31 667.043 414.71 522.258 252.31 380.345"/><path class="a" d="M516.448,0C231.222,0,0,231.209,0,516.42s231.222,516.421,516.448,516.421S1032.9,801.632,1032.9,516.42,801.674,0,516.448,0ZM832.1,719.324A25.84,25.84,0,0,1,806.344,745.1H226.558a25.841,25.841,0,0,1-25.75-25.778V313.485a25.811,25.811,0,0,1,25.75-25.724H806.344A25.813,25.813,0,0,1,832.1,313.485Z"/><polygon class="a" points="780.593 665.647 780.593 380.185 618.864 521.479 780.593 665.647"/></svg>