<svg xmlns="http://www.w3.org/2000/svg" viewBox="0 0 144.718 2823.524"><defs><style>.a{fill:#2c2c2c;}.b{fill:#e0e0e0;}.c{fill:#2a2a2a;}.d{fill:#e3e3e3;}.e{fill:#e4e4e4;}.f{fill:#505050;}.g{fill:#e1e1e1;}.h{fill:#e6e6e6;}.i{fill:#4e4e4e;}.j{fill:#e2e2e2;}.k{fill:#dbdbdb;}.l{fill:#dcdcdc;}.m{fill:#e5e5e5;}.n{fill:#ddd;}.o{fill:#181818;}.p{fill:#dedede;}.q{fill:#5d5d5d;}.r{fill:#5a5a5a;}.s{fill:#b9b9b9;}.t{fill:#757575;}.u{fill:#666;}.v{fill:#cdcdcd;}.w{fill:#ccc;}.x{fill:#dadada;}.y{fill:#d6d6d6;}.z{fill:#d5d5d5;}.aa{fill:#cfcfcf;}.ab{fill:#bababa;}.ac{fill:#b3b3b3;}.ad{fill:#b2b2b2;}.ae{fill:#d2d2d2;}.af{fill:#d1d1d1;}.ag{fill:#c1c1c1;}.ah{fill:#d0d0d0;}.ai{fill:#bcbcbc;}.aj{fill:#b5b5b5;}.ak{fill:#b8b8b8;}.al{fill:#dfdfdf;}.am{fill:#d4d4d4;}.an{fill:#bdbdbd;}.ao{fill:#d9d9d9;}.ap{fill:#606060;}.aq{fill:#a6a6a6;}.ar{fill:#717171;}.as{fill:#5c5c5c;}.at{fill:#d8d8d8;}.au{fill:#4a4a4a;}.av{fill:#cacaca;}.aw{fill:#a3a3a3;}.ax{fill:#fff;}.ay{fill:#909090;}.az{fill:#4b4b4b;}.ba{fill:#4d4d4d;}.bb{fill:#111;}.bc{fill:#595959;}.bd{fill:#515151;}.be{fill:#545454;}.bf{fill:#8c8c8c;}.bg{fill:#6a6a6a;}.bh{fill:#676767;}.bi{fill:#6c6c6c;}.bj{fill:#f4f4f4;}.bk{fill:#a4a4a4;}</style></defs><title>pstools</title><path class="a" d="M8.763,881.638l-4.386-4.386a437.709,437.709,0,0,1,0-96.491l4.386-4.386a758.735,758.735,0,0,1,127.193,0l4.386,4.386a437.832,437.832,0,0,1,0,96.491l-4.386,4.386A758.735,758.735,0,0,1,8.763,881.638Z"/><path class="b" d="M70.166,2048.3h8.056c.482,10.153.972,20.481,1.462,30.809l3-.029V2053.7l8.865-1.383v29.849l2.382.724c2.644-5.738,5.289-11.477,10-21.694,3.266,23.951-.978,40.682-12.56,56.474H58.719c-8.593-8.606-18.825-24.442-24.266-38.941,4.189,1.236,7.225,1.658,9.772,3.006,3.019,1.6,5.617,3.993,8.4,6.042,4.9-8.6.575-18.011,3.224-29.714C57.688,2053.845,68.526,2056.611,70.166,2048.3Z"/><path class="c" d="M5.109,2460.954H91.318v42.419c14.722,2.369,29.1.04,43.905,1.593v86.419c-27.935,1.786-56.7.24-86.209.907v-43.207c-7.633-.276-14.619-.629-21.608-.752-7.19-.127-14.383-.028-22.3-.028Z"/><path class="d" d="M35.078,1517.6c1.155-8.147,2.31-16.294,3.343-23.582,12.556-7.558,24.03-10.679,36.193-2.746,10.261,6.692,20.59,13.28,31.494,20.3l-7.294,24.871-9.679-5.529c-13.608,7.522-28.792,2.985-43.645,4.416l-6.026-8.961C37.335,1523.785,38.52,1519.537,35.078,1517.6Z"/><path class="e" d="M70.166,1416.726l-13.9,16.733H44.531c-.3-2.187-1.171-4.136-.571-4.851,4.147-4.943,8.6-9.628,13.728-15.244-6.363-12.032-15.727-24.673-2.887-40.094,11.456-8.092,25.986-3.718,39.359-4.919,2.556,2.556,4.616,4.616,6.684,6.676.008,8.737.008,17.474.008,27.134l-17.528,14.565C78.938,1420.545,74.552,1413.013,70.166,1416.726Z"/><path class="f" d="M100.868,263.217,96.482,267.6c-10.962,6.043-22.885,8.387-35.225,9.141-5.592.653-9.974-2.312-14.506-4.829-2.25-2.311-3.307-5.266-4.424-8.187a21.325,21.325,0,0,1-.144-9.217,29.4,29.4,0,0,1,18.365-19.132c4.97-.857,8.928-4.571,14.053-4.993,3.929-.064,7.862-.147,11.787.121a31.416,31.416,0,0,1,14.712,8.787,31.1,31.1,0,0,1,5.637,6.345,18.1,18.1,0,0,1,.245,8.315A87.792,87.792,0,0,1,100.868,263.217Z"/><path class="g" d="M55.263,925.225c6.748-6.013,9.839-13.457,20.431-13.16l12.381,11.523c-3.77,8.905-7.178,16.955-10.717,25.316l23.438,8.624v10.8H44.5V957.25l20.851-7.142v-13.67Z"/><path class="h" d="M31.1,2810.71v-42.979H51.876c.528-4.919.9-8.359,1.346-12.534h51.292c.224,6.038.586,12.97.711,19.907.129,7.191.029,14.388.029,23.072H84.07l-1.345,12.534Z"/><path class="i" d="M65.78,1315.848H61.394c-2.3-.4-3.922-1.923-5.578-3.392-1.567-1.634-3.2-3.195-4.821-4.781-1.6-1.725-3.336-3.3-4.971-4.992-1.706-1.785-3.62-3.35-5.214-5.251-2.051-2.884-3.985-5.776-1.685-9.434,5.284-6.4,12.171-11.278,16.961-18.124,3.317-3.672,7.231-5.79,12.353-4.774,2.487,1.134,4.976,2.292,7.781,2.428l2.718.075L92.1,1280.761a12.676,12.676,0,0,1,3.043,3.762,9.166,9.166,0,0,1-.294,4.732c-1.332,2-3.5,3.14-5.089,4.868-1.607,1.613-3.3,3.151-4.846,4.824-1.575,1.541-3.176,3.066-4.679,4.682-1.561,1.482-3.1,3-4.571,4.572-1.556,1.447-3.046,2.967-4.532,4.487C69.523,1314.04,68.072,1315.656,65.78,1315.848Z"/><path class="e" d="M79.679,1646.346l11.408,10.619H62.562c-4.519-8.132,3.156-7.065,7.16-9.339v-41.495H58.665c-.977,2.085-2.383,5.089-3.7,7.891H49.261v-16.883H99.906v15.807c-8.317,4.5-6.991-3.452-9.453-7.215H79.679Z"/><path class="h" d="M18.137,2437.943c-.437-4.18-.8-7.612-1.231-11.761H5.445v-30.674h28.4c.559,3.092,1.276,7.057,2.126,11.761H47.168v30.674Z"/><path class="h" d="M105.254,2642.6v54.5c-11.914.662-24.033.232-36.111.309-12.3.077-24.61.016-37.677.016v-54.816C47.586,2639.592,86.923,2639.511,105.254,2642.6Z"/><path class="e" d="M57.008,1171.112l24.045-26.72,20.218,20.22-26.719,24.043c-3.991-1.259-8.3-1.638-11.794-4.251C58.33,1181.054,59.243,1175.4,57.008,1171.112Z"/><path class="e" d="M70.938,30.314h15.3c1.086-2.983,2.007-5.515,3.34-9.176l10.5,12.907L88.94,42.617c-.375-1.067-1.137-3.23-2.29-6.5H70.683V51.323l8.9,3.308L67.638,63.06l-8.275-9.748L65,51.979c.262-4.576.572-9.963.925-16.122H49.609l-1.789,5.15L37.644,30.831l8.776-9.423,3.055,8.775h15.4V14.948l-8.016-3.79L68.078,0,78.826,11.516l-7.888,2.605Z"/><path class="j" d="M65.78,592.164l-1.823-3.882,10.907-11.256,3.383,3.13,18.369-15.435,10.149,8.915L91.109,592.073l5.171,6.94L85.715,609.264l-6.777-3.942c-2.717.1-5.441.3-8.091-.578-3.285-1.746-6.434-3.613-7.1-7.755A5.993,5.993,0,0,1,65.78,592.164Z"/><path class="k" d="M74.552,2166.726l13.682,10.624c-2.608,8.962,3.884,19.044-4.619,26.568,6.694,9.15,17.776,14.607,22.441,25.526l-5.3,4.077-19.535-17.936H50.159l-10.695-13.772c-1.871-3.462-.178-5.688,2.58-7.556,7.068-4.029,16.635,3.652,22.737-4.9,2.621-3.005,2.579-6.493,1.935-10.112-.546-2.856-1.144-5.691-.69-8.625a10.947,10.947,0,0,1,3.32-4.877A4.033,4.033,0,0,1,74.552,2166.726Z"/><path class="l" d="M48.236,719.357c.484-2.677.036-6.278,1.615-7.868,6.434-6.484,13.489-12.352,20.315-18.448,4-1.786,7.989-1.474,11.978.049a29.415,29.415,0,0,1,9.074,8.4,13.488,13.488,0,0,1,.878,9.1c1.923,9.115-6.2,12.162-10.763,17.091-4.121,4.449-7.414,11.2-15.553,9.225Q43.214,741.923,48.236,719.357Z"/><path class="h" d="M83.324,372.866C71.287,385.982,59.251,399.1,46.282,413.23L36.243,399.567l38.309-35.473C77.062,367.432,82.294,368.048,83.324,372.866Z"/><path class="m" d="M52.519,499.924h25.29l1.823,8.286c-11.767,1.28-23.032.284-35.024.721V447.863h7.911Z"/><path class="m" d="M84,469.3H57.952l-1.332-7.675H91.341v59.94H84Z"/><path class="n" d="M48.236,719.357,65.78,736.9c1.543,10.155-7.6,12.438-11.07,17.559L31.675,730.723C34.187,726.692,37.5,718.709,48.236,719.357Z"/><path class="n" d="M92.1,710.585,87.71,706.2c-2.113-2.477-3.487-5.5-5.822-7.82-2.324-3.335-6.137-5.543-7.336-9.723L85.5,675.377,108.671,699.2C106.144,703.253,102.829,711.23,92.1,710.585Z"/><path class="o" d="M65.78,1833.392l21.93,21.93c-3.472,10.782-15.042,8.069-21.93,13.158l-4.386,4.386c-14.46-10.983-3.347-25.855-5.879-38.649C58.654,1830.448,62.136,1830.919,65.78,1833.392Z"/><path class="n" d="M59.944,1091.421H39.053l12.973-25.147H69.5v15.6Z"/><path class="p" d="M65.78,1723.743c1.024-8.259,8.2-2.377,11.648-5.07,1.215-2.86,2.429-5.722,4.165-9.814,10.463,6.279,16.208,15.333,25.188,22.353L92.1,1745.673a5.612,5.612,0,0,1-5.486,1.514c-6-5.006-9.233-13.331-18.016-15.03A10.142,10.142,0,0,1,65.78,1723.743Z"/><path class="l" d="M79.35,1065.794l-14.227-6.342c13.072-11.109,22.613-25.024,37.663-34.521,7.086,11.758-7.155,13.934-8.187,22.139C93.817,1053.3,85.572,1058.585,79.35,1065.794Z"/><path class="q" d="M135.956,776.375H8.763c1.153-1.462,2.3-4.2,3.46-4.2q60.135-.332,120.273,0C133.657,772.179,134.8,774.913,135.956,776.375Z"/><path class="q" d="M8.763,881.638H135.956c-1.153,1.462-2.3,4.2-3.46,4.2q-60.137.332-120.273,0C11.062,885.834,9.916,883.1,8.763,881.638Z"/><path class="j" d="M119.1,2420.505l9.779,1.949-12.47,9.038-10.89-9.212,7.653-1.91c.3-4.477.647-9.8,1.058-16.02H98.14c-.956,2.067-2.327,5.032-3.743,8.1l-11.121-11.12,11.536-11.1,2.727,8.857h20.288C118.323,2407.467,118.732,2414.373,119.1,2420.505Z"/><path class="r" d="M57.008,1171.112l17.544,11.565v5.978l-4.386,4.386c-3.511,7.325-9.934,6.923-16.472,6.209a18.08,18.08,0,0,1-6.973-6.292c-1-3.157-1.121-6.163,1.515-8.688Z"/><path class="s" d="M61.394,271.989c12.177,1.345,23.46-1.075,33.728-7.916a3.7,3.7,0,0,1,1.308,1.459,6.07,6.07,0,0,1,.052,2.071c-2.656,2.924-4.82,7.469-8.065,8.455-8.328,2.53-17.136,3.479-27.023,5.294v12.567q-2.193,2.632-4.386,0c-.373-3.81,1.931-9.082-5.422-8.978-1.1.016-2.232-2.718-3.35-4.18a5.1,5.1,0,0,1-1.479-3.787q.117-2.1.542-2.1C51.367,270.825,55.648,267.823,61.394,271.989Z"/><path class="t" d="M70.166,2048.3v30.261H61.5v-20.848c-6.61,10.843-2.754,22.669-5.428,33.98a16.5,16.5,0,0,1-3.391-1.818c-.359-.326-.061-1.379-.061-2.1V2054.86Z"/><path class="k" d="M65.78,1868.48l4.792-7.195c6.007-4.33,14.228,3.389,17.138-5.963l10.878,7.3-20.9,2.7c3.964,8.283,7.39,15.441,12.6,26.323-6.671-2.651-10.32-3.375-13.077-5.346C71.153,1881.962,74.01,1871.641,65.78,1868.48Z"/><path class="q" d="M4.377,780.761v96.491C2.915,876.1.185,874.96.176,873.8q-.352-44.79,0-89.581C.185,783.053,2.915,781.912,4.377,780.761Z"/><path class="q" d="M140.342,877.252V780.761c1.462,1.151,4.191,2.292,4.2,3.455q.352,44.789,0,89.581C144.533,874.96,141.8,876.1,140.342,877.252Z"/><path class="u" d="M35.078,1517.6c10.055,1.359,12.826-6.1,15.079-15.427l15.593,7.177v10.939c-1.675.522-3.556,1.116-5.442,1.7-6.814,2.094-15.412-4.281-20.844,4.387C32.9,1526,35.739,1520.928,35.078,1517.6Z"/><path class="v" d="M65.78,1271.989c-.644-1.427-1.289-2.853-1.727-3.822l-7.045,3.822q-2.193,3.009-4.386,0c-1.655-6.574-3.31-13.148-4.852-19.271l8.923-8.922c-.995,5.733-1.573,9.067-2.622,15.116l5.651,4.83,3.035-8.5c4.325-.123,9.957-4.6,11.8,3.587-2.771,3.258.322,7.475-1.774,10.846C71.005,1272.144,69.009,1273.934,65.78,1271.989Z"/><path class="w" d="M100.868,1285.147c9.136,2.079,8.551,11.61,13.238,16.831-2,9.75-8.725,9.947-17.624,9.236v-17.295c-.579-3.291-2.874-6.563-.108-9.891A3.539,3.539,0,0,1,100.868,1285.147Z"/><path class="l" d="M57.008,1833.392c0,11.354-.2,22.714.2,34.054.064,1.853,2.727,3.615,4.189,5.42v7.571l-8.08,1.514v-64.61l3.694,7.279C59.559,1827.544,59.65,1830.468,57.008,1833.392Z"/><path class="m" d="M52.622,1197.427c6.346.529,12.37-.229,17.544-4.386,1.839,1.462,3.626,4.105,5.525,4.188,9.794.427,19.617.2,30.722.2-1.742,2.476-2.09,3.42-2.458,3.428-17.11.371-34.221.66-51.333.958q-2.169-1.461-1.447-2.924T52.622,1197.427Z"/><path class="x" d="M52.622,1043.919c1.332,2.293,2.664,4.587,4.509,7.762H31.422l10.125-16.033,6.689,3.885C49.922,1040.771,52.462,1041.155,52.622,1043.919Z"/><path class="p" d="M55.328,2311.776l-10.548,9.808-11.062-8.6,9.555-12.554Z"/><path class="p" d="M97.393,2322.1l-11.676-9.375,9.521-11.4,11.411,8.434C103.639,2313.774,100.9,2317.427,97.393,2322.1Z"/><path class="p" d="M69.256,2300.826l11.675,9.375-9.521,11.4L60,2313.164C63.009,2309.151,65.751,2305.5,69.256,2300.826Z"/><path class="y" d="M65.78,592.164v4.386c-.332,17.376-10.16,25.619-26.523,27.579l-1.826-2.9q1.017-1.375,2.033-2.753Z"/><path class="e" d="M95.737,977.406H49.03C64.432,971.787,80.114,975.034,95.737,977.406Z"/><path class="z" d="M74.552,600.936l4.386,4.386-21.93,21.93a9.369,9.369,0,0,1-3-5.268C57.083,611.288,64.513,604.839,74.552,600.936Z"/><path class="aa" d="M57.008,622.866v4.386c-2.062,7.7-8.144,10.531-14.61,8.435-6.706-2.173-9.208-8.474-6.536-15.625.32-.856,2.36-1.07,3.6-1.582v4.386C45.312,627.884,51.16,617.236,57.008,622.866Z"/><path class="k" d="M87.71,1758.831c-7.309,11.211-18.647,13.02-30.7,13.158a6.9,6.9,0,0,1-1.135-6.309c6.348-9.756,16.664-9.717,26.547-10.747A11.759,11.759,0,0,1,87.71,1758.831Z"/><path class="ab" d="M61.394,236.9,43.85,254.445c-2.645-.279-2.807-3.041-4.386-4.386l17.544-17.544C58.353,234.094,61.116,234.256,61.394,236.9Z"/><path class="q" d="M70.166,1416.726l15-18.156c7.331,9.386-5.388,10.819-5.506,16.692q1.83.735,3.662,1.464c-1.073,6.018-4.3,5.342-8.268,2.729C73.5,1418.431,71.8,1417.629,70.166,1416.726Z"/><path class="k" d="M43.85,1754.445c-.178-11.054,2.16-20.85,13.158-26.316a9.952,9.952,0,0,1,3.969,5.294c-.812,8.967-.782,18.336-10.914,22.852A6.786,6.786,0,0,1,43.85,1754.445Z"/><path class="ac" d="M52.622,1043.919l-4.386-4.386c9.332-7.41,19.816-3.256,30.023-3.155C70.481,1041.918,59.614,1036.206,52.622,1043.919Z"/><path class="ad" d="M83.324,1938.655l17.544,17.544a24.18,24.18,0,0,1-5.535,3.846c-11.132,1.492-17.439-3.239-18.695-14.484C77.306,1941.76,80.655,1940.537,83.324,1938.655Z"/><path class="ad" d="M100.868,1978.129l-17.544,17.544c-2.628-1.886-5.983-3.068-6.661-6.866,1.2-11.282,7.525-15.991,18.646-14.549A24.992,24.992,0,0,1,100.868,1978.129Z"/><path class="ad" d="M35.078,1956.2l17.544-17.544c2.628,1.887,5.984,3.069,6.662,6.866-1.2,11.282-7.526,15.991-18.646,14.549A24.955,24.955,0,0,1,35.078,1956.2Z"/><path class="ae" d="M103.019,334.376l9.471,10.551-9.356,4.908-9.775-4.555Z"/><path class="af" d="M35.078,2179.884l17.544-17.544a24.158,24.158,0,0,1,3.743,4.889,13.563,13.563,0,0,1,.231,6.126c-3.619,6.143-5.989,13.76-15.4,13.083C37.832,2185.5,36.992,2182.189,35.078,2179.884Z"/><path class="ag" d="M52.622,1271.989h4.386l-17.544,17.544q-2.193,3.254-4.386,0Z"/><path class="ad" d="M52.622,1995.673l-17.544-17.544a24.233,24.233,0,0,1,5.535-3.846c11.132-1.492,17.439,3.24,18.7,14.484C58.64,1992.568,55.291,1993.791,52.622,1995.673Z"/><path class="ah" d="M57.008,1943.041l-4.386-4.386h30.7l-4.386,4.386Q67.973,1954.66,57.008,1943.041Z"/><path class="ai" d="M48.236,276.375v4.386H39.464V263.217l2.193-2.8,2.193,2.8,4.386,4.386C49.069,270.527,50.9,273.451,48.236,276.375Z"/><path class="ah" d="M52.622,1995.673l4.386-4.386q10.965-11.619,21.93,0l4.386,4.386Z"/><path class="d" d="M40.478,119.212c-1.033,3.165-1.852,5.674-4.191,12.836-.712-8.595-1.034-12.49-1.425-17.2h16.9l.358,2.085Z"/><path class="aj" d="M127.184,1085.585v9.977l-10.811,1.142C113.1,1093.432,115.559,1091.137,127.184,1085.585Z"/><path class="d" d="M88.491,114.811h16.383v10.628l-1.771,1.77c-.995-2.423-1.99-4.846-3.274-7.97l-11.474-1.571Z"/><path class="aj" d="M115.449,1552l11.181-12.072c.208,3.6.431,7.461.7,12.072Z"/><path class="aj" d="M114.749,1665.977l11.953-12.958c.209,4.641.383,8.479.585,12.958Z"/><path class="d" d="M51.907,170.374H34.914c.309-4.6.572-8.506.835-12.41C37.642,167.836,45.934,166.224,51.907,170.374Z"/><path class="d" d="M88.423,167.464H98.54l5.7-12.662c.541,6.97.845,10.878,1.21,15.582H88.519Z"/><path class="aj" d="M126.488,969.565V981.7l-10.148.934C113.969,980.265,113.969,980.265,126.488,969.565Z"/><path class="aj" d="M126.836,173.326v10.142H116.689Z"/><path class="aj" d="M116.988,2823.524l9.607-9.612v9.612Z"/><path class="ak" d="M100.868,241.287,87.71,232.515,84.9,230.322l2.808-2.193c6.805-.7,11.439,1.847,13.158,8.772q2.186,1.462,1.458,2.924C101.842,240.8,101.358,241.287,100.868,241.287Z"/><path class="aj" d="M126.488,1765.942v14l-14.274,1.315C117.326,1774.827,121.361,1771.448,126.488,1765.942Z"/><path class="aj" d="M115.45,753.749l11.18-12.071c.207,3.58.429,7.42.7,12.071Z"/><path class="aj" d="M116.988,2007.734l9.607-9.611v9.611Z"/><path class="aj" d="M126.488,2122.465H112.93c4.4-5.532,8.431-8.911,13.558-14.418Z"/><path class="aj" d="M126.488,1195.766v14.006l-14.274,1.314C117.326,1204.652,121.361,1201.273,126.488,1195.766Z"/><path class="aj" d="M126.087,411.7H114.626l11.461-9.564Z"/><path class="aj" d="M116.988,1893.7l9.607-9.611v9.611Z"/><path class="x" d="M35.078,2179.884q2.193,2.193,4.386,4.386c4.534,3.362,7.686,7.184,4.386,13.157l-4.386,4.386c-1.462-1.747-3.991-3.385-4.184-5.263C34.714,2191.046,35.078,2185.446,35.078,2179.884Z"/><path class="aj" d="M126.488,627.459V639.6l-10.148.935C113.969,638.16,113.969,638.16,126.488,627.459Z"/><path class="aj" d="M126.541,526.027H112.524c4.961-5.509,8.808-9.022,14.017-14.514Z"/><path class="aj" d="M115.449,2350.241l11.181-12.072c.207,3.58.429,7.42.7,12.072Z"/><path class="p" d="M110.287,508.465H97.393l-1.468-7.576,12.7-1.013Z"/><path class="al" d="M39.069,461.346V468.6H26.7v-7.251Z"/><path class="am" d="M83.324,359.708v-8.75l12.792,6.157c2.074,8.276-3.771,6.891-8.406,6.979A4.656,4.656,0,0,1,83.324,359.708Z"/><path class="aj" d="M126.541,297.957H112.524c4.961-5.509,8.808-9.022,14.017-14.514Z"/><path class="aj" d="M126.488,1309.8v14.006l-14.275,1.315C117.326,1318.687,121.361,1315.308,126.488,1309.8Z"/><path class="aj" d="M126.541,1423.794v14.1l-14.763,1.238C117.485,1432.8,121.332,1429.285,126.541,1423.794Z"/><path class="h" d="M68.022,337.628c2.739,2.967,4.56,4.938,6.084,6.59l-6.025,6.826-6.59-6.589Z"/><path class="j" d="M57.008,1732.515v-4.386c.375-6.561,5.448-3.725,8.772-4.386l4.386,4.386C67.354,1734.313,63.432,1737.168,57.008,1732.515Z"/><path class="an" d="M111.785,372.913l-4.471,4.472-5.909-6.95c1.433-1.553,3.254-3.524,6.446-6.981Z"/><path class="ao" d="M61.394,236.9l-4.386-4.386c2.671-.477,5.38-.8,8-1.471,3.219-.822,6.365-1.93,9.542-2.915q4.446,2.193,0,4.386Z"/><path class="x" d="M52.622,2166.726v-4.386c5.563,0,11.163-.365,16.667.2,1.878.193,3.516,2.723,5.263,4.185H70.166Q61.394,2174.094,52.622,2166.726Z"/><path class="n" d="M52.622,1776.375c-9.825-.918-12.24-3.333-13.158-13.158,4.165-2.043,7.806-1.176,11.034,1.981C52.374,1768.7,54.772,1772.105,52.622,1776.375Z"/><path class="am" d="M39.464,1978.129H35.078V1956.2h4.386Q51.083,1967.164,39.464,1978.129Z"/><path class="am" d="M100.868,1978.129H96.482q-11.619-10.965,0-21.93h4.386Z"/><path class="j" d="M78.148,117.749H62.118l-.16-2.714,16.1-1.094Q78.1,115.844,78.148,117.749Z"/><ellipse class="j" cx="70.166" cy="168.919" rx="12.405" ry="1.551"/><path class="j" d="M87.71,1758.831H83.324c-4.653-6.424-1.8-10.346,4.386-13.158H92.1Z"/><path class="ap" d="M74.552,688.656l8.772,8.771q-2.193,2.985-4.386,0l-8.772-4.386Z"/><path class="am" d="M35.078,1289.533h4.386l4.386,8.772q1.981,1.461,1.321,2.924t-1.321,1.462C36.925,1300.972,34.374,1296.338,35.078,1289.533Z"/><path class="aq" d="M48.236,1767.6l-8.772-4.386,4.386-8.772h4.386c3.835,3.049,4.045,6.837,2.246,11.033Q49.36,1766.541,48.236,1767.6Z"/><path class="ar" d="M83.324,372.866H74.552v-8.772h4.386c3.643.024,6.42,1.781,8.772,4.386Z"/><path class="as" d="M87.71,368.48c-3.325-.661-8.4,2.175-8.772-4.386l4.386-4.386,4.386,4.386Z"/><ellipse class="b" cx="37.271" cy="142.603" rx="1.551" ry="9.304"/><path class="b" d="M101.624,148.5V136.856l2.226-.235,1.659,11.5Z"/><ellipse class="k" cx="81.131" cy="230.322" rx="9.304" ry="3.101"/><path class="j" d="M100.868,263.217c.661-3.325-2.176-8.4,4.386-8.772l2.193-2.808,2.193,2.808Z"/><path class="at" d="M96.482,1285.147l3.822,7.045-3.822,1.727H92.1q-1.992-1.463-1.328-2.924c.441-.975.882-1.462,1.328-1.462v-4.386Q94.289,1282.174,96.482,1285.147Z"/><path class="aq" d="M52.622,1776.375l-4.386-8.772c2.924-2.627,5.848-2.325,8.772,0v4.386Z"/><path class="au" d="M70.166,1267.6c.661-3.325-2.175-8.4,4.386-8.772l4.386,8.772C76.014,1270.062,73.09,1270.327,70.166,1267.6Z"/><path class="av" d="M57.008,1833.392v-8.772l8.772,8.772Z"/><path class="g" d="M100.868,241.287V236.9l8.772,8.772-2.193,2.808-2.193-2.808Z"/><path class="ao" d="M48.236,1184.27v8.771q-2.193,2.985-4.386,0l-4.993-1.949Z"/><path class="ao" d="M43.85,1193.041h4.386l4.386,4.386v4.386Z"/><path class="at" d="M43.85,263.217H39.464V250.059l4.386,4.386Z"/><ellipse class="d" cx="107.447" cy="250.059" rx="3.101" ry="6.203"/><path class="at" d="M92.1,1289.533v4.386l-4.386,4.386q-1.981-1.463-1.321-2.924t1.321-1.462Z"/><path class="ao" d="M87.71,1293.919v4.386l-4.386,4.386q-1.981-1.463-1.321-2.924t1.321-1.462Z"/><path class="am" d="M43.85,1302.691v-4.386l4.386,4.386q1.982,1.461,1.321,2.924t-1.321,1.462Z"/><path class="ao" d="M83.324,1298.305v4.386l-4.386,4.386q-1.981-1.462-1.321-2.925t1.321-1.461Z"/><path class="am" d="M48.236,1307.077v-4.386l4.386,4.386q1.981,1.461,1.321,2.924t-1.321,1.462Z"/><path class="ao" d="M78.938,1302.691v4.386l-4.386,4.386q-1.982-1.462-1.321-2.925t1.321-1.461Z"/><path class="ao" d="M65.78,1315.848l4.386-4.385q1.981,1.461,1.321,2.924t-1.321,1.461q-1.47,1.82-2.942,3.638Q66.5,1317.666,65.78,1315.848Z"/><path class="am" d="M57.008,1311.463l4.386,4.385q-1.47,1.82-2.942,3.638-.722-1.82-1.444-3.638-1.98-1.461-1.321-2.924T57.008,1311.463Z"/><path class="at" d="M96.482,1285.147H92.1v-4.386c3.325.66,8.4-2.176,8.772,4.386Z"/><path class="ao" d="M70.166,1315.848v-4.385l4.386-4.386v4.386Z"/><path class="aw" d="M57.008,293.919h4.386c-1.047,6.1-4.424,5.093-9.218,2.255Z"/><path class="am" d="M57.008,1311.463v4.385l-4.386-4.385v-4.386Z"/><path class="w" d="M101.726,801.355c-1.007-1.006,1.038,1.038,3.638,3.639-8.267,11.21-16.6,22.513-27.955,37.9-1.642-7.341-2.66-11.893-3.152-14.094C81.645,821.422,91.685,811.388,101.726,801.355Z"/><path class="ao" d="M75.764,845.163c-1.76,2.834-2.946,4.478-3.845,6.266s-1.521,3.742-2.512,6.251c-7.065,3.716-14.525,9.4-24.744,5.326q4.32-11.848,8.652-23.729C66.5,838.231,66.5,838.231,75.764,845.163Z"/><path class="ae" d="M48.541,826.508,36.048,839l-16.52-7.6L31.6,804.978C38.332,813.539,43.465,820.06,48.541,826.508Z"/><path class="aj" d="M126.087,867.838h-16.96l16.96-8.582Z"/><path class="ax" d="M53,2587.045v-37.991H91.348v-39.507h39.136v77.5Z"/><path class="ax" d="M9.506,2465.328H86.967v78.439c-25.037.34-50.874.049-77.461.179Z"/><path class="ay" d="M65.408,1397.354v5.49H57.8q-.637-.967-1.276-1.934Z"/><path class="ao" d="M48.236,276.375l-3.822-7.045,3.822-1.727c4.317,1.67,11.1-4.065,13.158,4.386Z"/><path class="az" d="M56.65,2763.217H99.762c2.378,9.534.4,19.408,1.364,29.93H57.912C55.626,2783.709,57.939,2773.46,56.65,2763.217Z"/><path class="ba" d="M79.13,2804.828c-13.769,4.991-28.357.782-43.274,2.595V2777.2l16.709-1.054v21.644l26.484,1.2Z"/><path class="aj" d="M70.166,1267.6h8.772l-3.516,6.136,4.38,11.65c-11.153-.54-14.352-5.333-14.022-13.4Z"/><path class="bb" d="M29.517,2421.112H9.6c-.334-6.707-.674-13.522-1.054-21.162H29.517Z"/><path class="az" d="M100.126,2692.686H35.82v-47.2c9.689-1.655,20.444-.424,31.076-.639,10.831-.22,21.669-.049,33.23-.049Z"/><path class="bc" d="M57.008,622.866,45.2,631.42l-5.738-8.554L65.78,596.55c3.325.661,8.4-2.175,8.772,4.386Z"/><path class="bd" d="M43.85,2197.427l-4.386-13.157a32.247,32.247,0,0,0,4.349-3.288c3.038-3.193,5.885-6.568,8.809-9.87a3.946,3.946,0,0,1,4.806-1.527c3.412,1.861,7.389,2.008,10.888,3.617a40.29,40.29,0,0,1,9.136,7.5c3.917,5.278,5.579,10.749,1.486,16.729l-9.9,12.872H54.183Z"/><path class="be" d="M78.938,2197.427c.529-6.345-.23-12.369-4.386-17.543q-2.174-1.462-1.449-2.925t1.449-1.461l8.6,5.731C81.193,2186.746,88.254,2194.052,78.938,2197.427Z"/><path class="bf" d="M57.008,2171.112H52.622v-4.386H70.166v4.386A8.007,8.007,0,0,1,65,2173.665,7.61,7.61,0,0,1,57.008,2171.112Z"/><path class="bg" d="M65.78,2171.112h4.386l4.386,4.386v4.386L65.78,2175.5q-1.671-1.463-1.114-2.924T65.78,2171.112Z"/><path class="u" d="M65.78,710.585c.084-4.823-1.2-10.9,8.772-7.575v7.575l-1.866,1.785a8.234,8.234,0,0,1-5.041,0Q66.712,711.482,65.78,710.585Z"/><path class="bh" d="M74.552,719.357c-.084,4.824,1.2,10.9-8.772,7.575v-7.575q.933-.891,1.866-1.785a8.294,8.294,0,0,1,5.041,0Q73.62,718.462,74.552,719.357Z"/><path class="u" d="M74.552,710.585c4.824.084,10.9-1.205,7.575,8.772H74.552Q70.669,714.971,74.552,710.585Z"/><path class="bh" d="M65.78,719.357H59.3c-2.644-8.069-2.642-8.067,6.476-8.772Q69.664,714.971,65.78,719.357Z"/><path class="as" d="M78.938,697.427h4.386c6.561.375,3.725,5.448,4.386,8.772Z"/><path class="ap" d="M57.008,1767.6H48.236v-13.158l8.772-21.93,13.158-4.386,6.952-4.013,14.605,14.605c-1.368,2.371-2.691,4.661-4.013,6.952l-4.386,13.158Z"/><path class="bi" d="M96.482,1956.2v21.93l-17.544,13.158H57.008l-17.544-13.158V1956.2l17.544-13.158h21.93Q87.71,1949.622,96.482,1956.2Z"/><path class="bj" d="M82.576,2539.171H13.9v-69.237c10.414-1.46,21.878-.314,33.23-.528,11.568-.219,23.144-.049,35.45-.049Z"/><path class="bk" d="M65.78,2171.112v4.386l-8.772,7v-11.388Z"/><circle class="h" cx="70.166" cy="714.971" r="6.203"/><path class="v" d="M61.808,1755.454c-1.074-10.6,3.907-13.117,11.38-14.893C76.116,1750.127,71.1,1753.12,61.808,1755.454Z"/></svg>