<svg id="Calque_1" data-name="Calque 1" xmlns="http://www.w3.org/2000/svg" viewBox="0 0 1920 450"><defs><style>.cls-1{fill:#376790;}.cls-2{fill:none;stroke:#376790;stroke-miterlimit:10;stroke-width:3px;}</style></defs><title>inter_cv_mountains</title><path class="cls-1" d="M0,374.661s35.229-13.669,65.378-39.118c16.449-13.884,20.6-36.468,45.921-81.637,16.7-29.791,27.313-60.314,37.418-59.528,9.172.713,26.006,42.689,30.252,56.4,8.866,28.636,5.661,63.786,25.649,60.033,15.308-2.875,15.308-2.875,29.138-22.893,15.04-21.768,22.23-33.476,37.417-34.015,17.784-.632,24.176,32.913,28.914,39.118,25.2,33,15.755,50.607,35.716,71.433,17.948,18.725,42.533,22.173,66.331,25.512,49.159,6.895,64.019-12.258,96.945,1.7,22.342,9.472,17.639,19.2,42.519,30.614,21.4,9.821,42.907,9.516,85.04,8.5,40.19-.964,49.626-5.242,73.134,0,2.667.6,44.22,19.213,44.22,19.213H0Z"/><path class="cls-1" d="M1920,418.882s-39.973-19.925-85.8-39.118c-56.094-23.492-54.758-46.556-88.441-47.622-35.805-1.133-44.014,24.717-79.937,20.409-32.816-3.935-55.238-29.016-61.228-35.716-32.34-36.175-28.33-77.717-40.819-78.237-11.294-.469-13.3,33.552-40.819,76.536-10.37,16.195-30.063,46.952-64.63,66.331-31.32,17.558-39.929,6.2-103.748,25.511-35.412,10.717-36.212,15.259-71.433,25.512C1225.753,449.2,1196.4,450,1196.4,450H1920Z"/><polyline class="cls-2" points="585.847 431.097 608.496 290.189 644.78 431.097"/><line class="cls-2" x1="601.206" y1="335.543" x2="620.175" y2="335.543"/><line class="cls-2" x1="595.92" y1="368.425" x2="628.642" y2="368.425"/><line class="cls-2" x1="612.281" y1="368.425" x2="608.496" y2="290.189"/><line class="cls-2" x1="588.833" y1="412.516" x2="633.021" y2="385.433"/><line class="cls-2" x1="593.187" y1="385.433" x2="640.466" y2="414.346"/><line class="cls-2" x1="587.817" y1="418.839" x2="641.623" y2="418.839"/><path class="cls-2" d="M596.9,295.538a15.406,15.406,0,0,1,6.8,15.874c-1.491,6.992-7.167,11.037-14.869,10.77"/><path class="cls-2" d="M619.067,283.386c-4.844,4.352-8.542,8.686-6.8,14.7,2.022,7,8.328,13.323,20.758,10.489"/><line class="cls-2" x1="587.828" y1="305.743" x2="603.702" y2="311.412"/><line class="cls-2" x1="625.87" y1="295.538" x2="615.313" y2="300.961"/><line class="cls-2" x1="608.496" y1="289.462" x2="608.496" y2="256.013"/><line class="cls-2" x1="590.921" y1="269.619" x2="626.071" y2="269.619"/><line class="cls-2" x1="595.92" y1="263.383" x2="595.92" y2="277.556"/><line class="cls-2" x1="620.175" y1="260.549" x2="620.175" y2="279.824"/></svg>