<svg id="Calque_1" data-name="Calque 1" xmlns="http://www.w3.org/2000/svg" viewBox="0 0 1920 450"><defs><style>.cls-1{fill:none;stroke:#376790;stroke-miterlimit:10;stroke-width:5px;}</style></defs><title>inter_cv_sky</title><polygon class="cls-1" points="237.555 165.368 197.693 135.128 240.992 109.355 269.513 124.819 237.555 165.368"/><line class="cls-1" x1="219.353" y1="122.235" x2="255.43" y2="142.688"/><line class="cls-1" x1="254.434" y1="116.643" x2="218.508" y2="150.918"/><path class="cls-1" d="M231.7,114.889l-18.882-11.376a14.463,14.463,0,0,1-6.223-16c3.131-12.753,15.5-11.493,15.5-11.493l58.8,35.379"/><path class="cls-1" d="M296.376,120.716s9.151,4.98,8.532,5.134c-.509.126-14.109,1.1-15.082,13.02-.947,11.607,6.835,15.158,6.835,15.158l-34.017-20.494"/><path class="cls-1" d="M310.022,144.305c-2.947,8.512-11.246,10.6-13.361,9.723-3.763-1.568-7.675-7.522-6.774-15.757"/><path class="cls-1" d="M289.887,138.271c1.39-8.6,9.281-12.229,15.266-12.328,1.588-.026,6.642,10.394,5.443,15.979"/><path class="cls-1" d="M304.717,134.059a63.481,63.481,0,0,1,2.253,6.224l19.1,8.636a.331.331,0,0,1-.242.616l-20.408-6.847s-4.2,2.752-5.921,3.19c-.765.2-2.8-1.689-2.232-2.235,1.088-1.041,5.292-2.494,5.292-2.494s-4.533-1.463-6.017-2.623c-.821-.642,1-4,1.986-3.665,1.52.506,5.078,3.856,5.078,3.856a28.5,28.5,0,0,1-.376-5.135C303.289,133.2,304.533,133.716,304.717,134.059Z"/><path class="cls-1" d="M308,117.6c-4.494,2.981-16.58-4.022-19.931-8.247-3.95-4.979-9.29-21.384-4.124-25.085,5.562-3.986,17.463,6.49,20.962,12.371C307.5,101,312.225,114.8,308,117.6Z"/><path class="cls-1" d="M283.946,84.27s-13.745,10.652-4.467,25.085C291.827,128.564,308,117.6,308,117.6"/><path class="cls-1" d="M285.138,104.1l20.916-11.7s-.134-1.941.878-2.59c1.7-1.09,2.756-.674,3.589.586.975,1.476.114,2.405-.833,3.15-.79.621-2.661.343-2.661.343l-20.076,13.814c-.175-.184.317.531-.948-1.937C285.357,104.507,286.607,106.975,285.138,104.1Z"/><polygon class="cls-1" points="1626.189 128.96 1652.93 108.674 1623.884 91.385 1604.751 101.758 1626.189 128.96"/><line class="cls-1" x1="1638.4" y1="100.025" x2="1614.198" y2="113.745"/><line class="cls-1" x1="1614.867" y1="96.274" x2="1638.967" y2="119.266"/><path class="cls-1" d="M1630.121,95.1l12.666-7.631a9.7,9.7,0,0,0,4.175-10.732c-2.1-8.555-10.4-7.709-10.4-7.709l-39.445,23.732"/><path class="cls-1" d="M1586.731,99.006s-6.139,3.341-5.723,3.444c.341.085,9.465.74,10.117,8.734.635,7.786-4.585,10.168-4.585,10.168l22.819-13.747"/><path class="cls-1" d="M1577.577,114.83c1.977,5.71,7.544,7.114,8.963,6.523,2.525-1.052,5.148-5.046,4.544-10.57"/><path class="cls-1" d="M1591.084,110.783c-.933-5.772-6.226-8.2-10.241-8.271-1.065-.017-4.455,6.973-3.651,10.719"/><path class="cls-1" d="M1581.136,107.957a42.549,42.549,0,0,0-1.512,4.175l-12.815,5.793a.222.222,0,0,0,.162.413l13.691-4.593a22.7,22.7,0,0,0,3.971,2.14c.514.131,1.88-1.133,1.5-1.5a15.56,15.56,0,0,0-3.55-1.673,19.667,19.667,0,0,0,4.036-1.759c.551-.431-.669-2.68-1.332-2.459a17.1,17.1,0,0,0-3.407,2.587,19.055,19.055,0,0,0,.252-3.445C1582.094,107.378,1581.259,107.727,1581.136,107.957Z"/><path class="cls-1" d="M1578.933,96.917c3.014,2,11.122-2.7,13.37-5.532,2.65-3.34,6.232-14.345,2.766-16.828-3.731-2.674-11.714,4.354-14.061,8.3C1579.269,85.778,1576.1,95.038,1578.933,96.917Z"/><path class="cls-1" d="M1595.069,74.557s9.221,7.146,3,16.828c-8.284,12.886-19.133,5.532-19.133,5.532"/><path class="cls-1" d="M1594.27,87.859l-14.031-7.846s.09-1.3-.589-1.738c-1.14-.731-1.849-.452-2.408.393-.654.99-.076,1.614.559,2.113a3.016,3.016,0,0,0,1.785.231l13.467,9.266c.118-.123-.212.356.636-1.3C1594.123,88.133,1593.284,89.788,1594.27,87.859Z"/></svg>