<svg xmlns="http://www.w3.org/2000/svg" xmlns:xlink="http://www.w3.org/1999/xlink" data-name="Layer 2" preserveAspectRatio="xMidYMid meet" version="1.0" viewBox="0.0 0.0 300.0 100.0" zoomAndPan="magnify" style="fill: rgb(0, 0, 0);" original_string_length="1474"><g data-name="Layer 1"><g id="__id22_sj3lzzxdkq" style="fill: rgb(203, 120, 65);"><path d="m261.6,18.93l-15.57-15.57h-112.8l-1.78-1.78h-50.63l-14.77,14.43H26.37l-12.22,12.53v14.25L1.58,55.36v18.31l6.78,6.78h19.3l.23.23,17.74,17.73h67.49l14.95-15.68h119.13l4.41,4.41h33.18l10.97-10.97v-4.85l2.22-2.22.44-44.84-5.55-5.34h-31.27ZM73.45,95.48l12.29-12.29,15.31-.02-12.32,12.31h-15.29Zm36.3,0h-15.29l12.29-12.29,15.31-.02-12.32,12.31Z" opacity=".1" style="fill: inherit;"/><path d="m266.82,14.43l-14.11-14.43H80.17l-11.58,11.32H13.15l-7.75,7.75v30.24l-5.39,5.39v19.62l7.71,7.7h19.3l17.74,17.73.23.23h68.82l14.95-15.68h117.79l7.71,7.71h30.65l14.63-14.62.46-53.47v-.34s-9.52-9.16-9.52-9.16h-23.66Zm31.16,54.68l-2.22,2.22v4.85l-10.97,10.97h-33.18l-4.41-4.41h-119.13l-14.95,15.68H45.64l-17.74-17.73-.23-.23H8.36l-6.78-6.78v-18.31l12.57-12.56v-14.25l12.22-12.53h39.68l14.77-14.43h50.63l1.78,1.78h112.8l15.57,15.57h31.27l5.55,5.34-.44,44.84Z" style="fill: inherit;"/><path d="M94.45 95.48L109.74 95.48 122.06 83.17 106.75 83.19 94.45 95.48z" style="fill: inherit;"/><path d="M85.74 83.19L73.45 95.48 88.74 95.48 101.05 83.17 85.74 83.19z" style="fill: inherit;"/></g></g></svg>