<?xml version="1.0" standalone="no"?>
<!DOCTYPE svg PUBLIC "-//W3C//DTD SVG 1.1//EN" "http://www.w3.org/Graphics/SVG/1.1/DTD/svg11.dtd">
<svg xmlns="http://www.w3.org/2000/svg" id="Calque_1" data-name="Calque 1" viewBox="0 0 2005.685 1343.56" width="2005.68505859375" height="1343.56005859375"><defs><style>.cls-1{fill:#d20000;}.cls-2{fill:#9b0000;}</style></defs><title>logo_jn_without_tamanegi</title><path class="cls-1" d="M261.2,163.935s29.372-34.055,49.4-34.711c37.091-1.214,68.769,45.444,77.432,84.107,12.326,55.012-22.968,43.244-49.4,158.87C306.589,512.38,337.3,486.378,303.919,572.456c-10.795,27.842-20.493,44.423-36.046,48.062-30.483,7.132-68.027-39.069-84.107-73.427-34.342-73.38,2.855-153.434,6.675-161.54,34.257-72.678,88.8-137.495,89.448-189.575C280.389,155.881,261.2,163.935,261.2,163.935Z" transform="translate(-140.867 -71.18)"/><path class="cls-1" d="M159.735,290.764c-15.5,15.5,41.386,161.539,86.778,172.219,246.244,57.94,635.478-40.051,831.728,10.681,16.123,4.167,11.275,26.7,36.046,24.03,34.831-3.757,25.837-79.535,25.366-136.173-.476-57.278-53.294-90.43-85.443-92.118-23.011-1.208,11.53,24.443-34.711,21.361-300.383-20.026-660.843,68.086-776.991,29.37C242.508,320.134,170.136,280.363,159.735,290.764Z" transform="translate(-140.867 -71.18)"/><path class="cls-1" d="M532.211,118.544s143.8,10.574,164.209,60.076c5.823,14.125,2.363,36.526,17.356,45.392,17.863,10.562,44.687-5.867,53.4,2.67,65.417,64.082,120.736,381.08-25.365,785-38.03,105.141-73.667,161.741-133.5,196.25-109.948,63.409-303.759,32.943-357.79-49.4-28.29-43.111-3.307-57.684-52.067-118.818-34.055-42.7-59.991-83.783-57.406-88.113,5.506-9.223,157.624,124.112,309.729,94.788,84.981-16.384,138.821-77.538,157.534-98.793,142.95-162.37,82.13-419.229,70.757-467.263C628.206,265.546,532.211,118.544,532.211,118.544Z" transform="translate(-140.867 -71.18)"/><path class="cls-1" d="M1296,152.5c62.67-1.076,136,118,135,139-4.76,99.964,9.917,202.421,1,332-17.251,250.685-24,407-11,516,.634,5.318,25.9,16.879,27,27,2.093,19.236-57.4,16.429-104,20-60.982,4.673-105.757-2.4-104-27,1-14,24-24,26-34,16.924-84.618,9.369-206.248,19-443,8.305-204.157,24-409.989-3-491-8-24-37.6-23.807-37-37C1245.43,145.1,1278.123,152.807,1296,152.5Z" transform="translate(-140.867 -71.18)"/><path class="cls-1" d="M1553,245.9c-14.853-17.248-278,44.791-366,124.42-45.182,40.885,5.147,121.888,16,146.816,13,29.861,183.422-45.588,203-76.311C1443,382.766,1568,263.323,1553,245.9Z" transform="translate(-140.867 -71.18)"/><path class="cls-1" d="M1904.31,71.18l30.314,252.345,13.109-194.175L1963.3,253.884l22.94-83.568-3.277,149.113L2010,121.157l2.458,182.705,13.109-87.665,23.759,189.259,13.109-213.019s31.953,236.778,18.844,430.953c-23.043,341.324-26.563,197.318,0,409.652,4.379,35,12.228,84.871-17.2,122.895-53.69,69.361-218.2,49.949-218.754,8.193-.819-62.267,30.522-17.83,41.784-63.906,9.013-36.868,36.926-223.26,34.411-496.5C1919.057,336.634,1904.31,71.18,1904.31,71.18Z" transform="translate(-140.867 -71.18)"/><path class="cls-1" d="M1178,136.5l-11,174s438,390,783,763c149.2,161.308,79.737,276.161,124,263,32.918-9.788,88.9-90.507,68-177-36-149-76.871-113.537-136-170C1629,629.5,1178,136.5,1178,136.5Z" transform="translate(-140.867 -71.18)"/><path class="cls-2" d="M427.505,1340.112c11.521,2.561,25.858,7.425,34.434,11.521l-3.84,8.064a186.709,186.709,0,0,0-34.433-11.776Zm7.681,62.6c41.09-13.824,70.147-36.353,87.044-74.5a81.573,81.573,0,0,0,7.808,5.76c-17.152,37.761-47.49,61.827-86.148,75.523a2.923,2.923,0,0,1-1.408,3.2Zm6.4-94.34c11.521,3.071,25.6,8.193,34.306,12.544l-4.225,7.809a201.349,201.349,0,0,0-33.921-12.929Zm59.907-4.224a100.153,100.153,0,0,1,16.513,18.56l-4.992,3.713a111.275,111.275,0,0,0-16.257-18.689Zm17.793-7.809a114.587,114.587,0,0,1,16.641,18.434l-4.992,3.711a116.489,116.489,0,0,0-16.257-18.432Z" transform="translate(-140.867 -71.18)"/><path class="cls-2" d="M786.3,1334.736a1.962,1.962,0,0,1-1.28.9c-5.5,12.545-16.513,26.113-26.113,34.05a61.125,61.125,0,0,0-6.272-4.609c9.088-6.656,18.817-18.432,22.017-26.625H700.531v-7.3h77.956l1.024-.64Zm-41.089,18.433a2.928,2.928,0,0,1-2.433,1.792c-2.816,22.913-11.392,44.546-32.257,58.5a55.8,55.8,0,0,0-6.657-4.864c20.994-13.441,28.674-32,31.106-56.835Z" transform="translate(-140.867 -71.18)"/><path class="cls-2" d="M993.14,1322.831c-.384,1.024-1.408,1.793-3.328,1.921-5.121,30.721-15.745,63.106-30.721,82.052a39.415,39.415,0,0,0-8.577-4.609c14.337-17.409,25.6-49.923,29.7-82.051Zm64.387,83.2c-6.016-22.4-20.865-58.755-34.049-82.435l8.32-3.969c13.44,22.913,28.417,59.012,35.073,82.692Zm-1.664-108.805a14.4,14.4,0,1,1-14.337,14.465A14.341,14.341,0,0,1,1055.863,1297.23Zm10.113,14.465a10.113,10.113,0,1,0-10.113,10.113A10.163,10.163,0,0,0,1065.976,1311.7Z" transform="translate(-140.867 -71.18)"/><path class="cls-2" d="M1340.152,1345.873h-46.339c-2.431,32.9-10.751,52.866-38.657,68.867a50.451,50.451,0,0,0-7.3-6.272c26.5-14.721,34.306-32.258,36.739-62.6h-51.331v-8.833h51.714c.384-9.984.512-21.5.512-34.434l12.545.769c-.128,1.279-1.28,2.048-3.072,2.3-.128,11.648-.128,22.016-.64,31.361h45.826Z" transform="translate(-140.867 -71.18)"/><path class="cls-2" d="M1513.973,1313.231c13.312,4.224,28.673,10.88,38.145,17.409l-4.864,8.064c-9.216-6.528-24.32-13.312-37.377-17.793Zm-.512,88.708c45.442-14.081,75.651-39.553,91.012-75.011a49.729,49.729,0,0,0,8.32,5.248c-16,35.074-47.233,62.339-90.628,76.8a4.183,4.183,0,0,1-1.792,2.945Z" transform="translate(-140.867 -71.18)"/><path class="cls-2" d="M1855.353,1370.962a462.466,462.466,0,0,0-44.93-20.865v64h-9.6V1302.862l12.929.769c-.128,1.408-1.152,2.3-3.328,2.687V1343.7l1.92-2.687a444.845,444.845,0,0,1,48.13,21.377Z" transform="translate(-140.867 -71.18)"/></svg>